<svg xmlns="http://www.w3.org/2000/svg" viewBox="0 0 277.01 68.39"><defs><style>.cls-1{opacity:0.4;}.cls-2{fill:none;stroke:#dd2526;stroke-miterlimit:10;stroke-width:0.51px;}.cls-3{fill:#fff;}</style></defs><title>acomara-logo-footer</title><g id="Capa_2" data-name="Capa 2"><g id="Capa_1-2" data-name="Capa 1"><g class="cls-1"><path class="cls-2" d="M2.18,68.13l0,0-.07,0Z"/><path class="cls-3" d="M69.41,62.72a145.63,145.63,0,0,1,24.92,5.41h1.25L87.87,57A117.54,117.54,0,0,0,69,55.22a55.49,55.49,0,0,1,.38,6.45C69.43,62,69.42,62.37,69.41,62.72Z"/><path class="cls-3" d="M57,48.74c-8.38,1.34-11.6-5-5.7-7.21A99.28,99.28,0,0,1,64,37.87q-.67-1.4-1.43-2.75c-3.18,1-6.9,2.37-11.46,4.18-6.54,2.6-12-3.35-6.7-6.7A86.23,86.23,0,0,1,56.7,26.48q-.82-1-1.68-1.92C52.4,26,49.31,27.74,45.53,30c-6.06,3.57-11.75-2-7-6.16,2.38-2.07,5.29-4.3,8.42-6.51a55,55,0,0,0-7.42-4.59L1.08,68.13h.33c15.46-8.71,41.21-15.92,67.06-16.71q-.38-2-.91-4C64.42,47.7,61,48.12,57,48.74Z"/><path class="cls-3" d="M5.05,68.11a155.2,155.2,0,0,1,64.36-5.39c0-.35,0-.71,0-1.06A55.49,55.49,0,0,0,69,55.22C45.68,54.8,21.7,60.51,5.05,68.11Z"/><path class="cls-3" d="M46.93,17.3c-3.13,2.21-6,4.44-8.42,6.51-4.75,4.13,1,9.73,7,6.16,3.78-2.23,6.87-4,9.49-5.41A55.15,55.15,0,0,0,46.93,17.3Z"/><path class="cls-3" d="M44.44,32.6c-5.33,3.35.16,9.29,6.7,6.7,4.56-1.81,8.28-3.16,11.46-4.18a55,55,0,0,0-5.91-8.64A86.23,86.23,0,0,0,44.44,32.6Z"/><path class="cls-3" d="M57,48.74c3.91-.62,7.38-1,10.52-1.31A54.54,54.54,0,0,0,64,37.87a99.28,99.28,0,0,0-12.68,3.66C45.45,43.73,48.67,50.08,57,48.74Z"/><path class="cls-3" d="M67.56,47.43A54.54,54.54,0,0,0,64,37.87q-.67-1.4-1.43-2.75a55,55,0,0,0-5.91-8.64q-.82-1-1.68-1.92a55.39,55.39,0,0,0-15.5-11.85L1.08,68.13h.33c15.46-8.71,41.21-15.92,67.06-16.71Q68.09,49.4,67.56,47.43Z"/><path class="cls-3" d="M71.1,32.82h0c-1.77.37-3.7.85-5.87,1.49l1.07,2,.81.91c2.1-.43,4.2-.81,6.25-1.14Z"/><path class="cls-3" d="M78.46,50l5.79,1.81-3.14-4.52c-1.65-.11-3.39-.17-5.23-.18Z"/><path class="cls-3" d="M62.68,20.68l-6.53-9.42c-1.68,1-3.37,2.1-5,3.21L58,20.68l1,1.82c1.38-.7,2.62-1.3,3.76-1.82Z"/><path class="cls-3" d="M71.1,32.82l-6.51-9.38c-1.43.51-2.87,1-4.31,1.6l4.95,9.27c2.18-.64,4.1-1.12,5.87-1.49Z"/><path class="cls-3" d="M67.1,37.22l8.78,9.86c1.84,0,3.58.07,5.23.18L73.35,36.08C71.3,36.41,69.2,36.79,67.1,37.22Z"/><path class="cls-3" d="M81.11,47.26,73.35,36.08,71.1,32.82l-6.51-9.38-1.91-2.76-6.53-9.42h0L48.34,0,39.52,12.71A55.39,55.39,0,0,1,55,24.56L56.09,24,55,24.56q.86.94,1.68,1.92c1.18-.49,2.38-1,3.58-1.44-1.2.46-2.4.94-3.58,1.44a55,55,0,0,1,5.91,8.64q.75,1.35,1.43,2.75c2-.45,4-.85,6-1.22-1,.18-1.94.37-2.91.56s-2.05.42-3.08.65a54.54,54.54,0,0,1,3.54,9.56q.53,2,.91,4a142.86,142.86,0,0,1,15.78.36ZM58.92,22.5h0Zm-1.83.95-.27.15ZM58,23,58,23Z"/><path class="cls-3" d="M114.76,16.68h3.62l10.12,23.49h-4.78l-2.19-5.37H111.34l-2.12,5.37h-4.68Zm5.31,14.54-3.62-9.56-3.69,9.56Z"/><path class="cls-3" d="M147.17,22.18a6.66,6.66,0,0,0-5.34-2.42c-4.85,0-8.13,3.75-8.13,8.59,0,5.11,3.12,8.66,8,8.66a6.9,6.9,0,0,0,5.71-2.72l3.35,2.36a11.1,11.1,0,0,1-9.09,4.11c-7.33,0-12.54-5.08-12.54-12.41,0-7.53,5.51-12.28,12.74-12.28,3.05,0,6.67,1.13,8.53,3.58Z"/><path class="cls-3" d="M164.36,16.08c7.33,0,12.67,4.75,12.67,12.28,0,7.34-5.34,12.41-12.67,12.41s-12.58-5.08-12.58-12.41C151.78,20.82,157.13,16.08,164.36,16.08Zm0,20.94c4.81,0,8.1-3.65,8.1-8.66,0-4.84-3.22-8.59-8.1-8.59s-8.06,3.75-8.06,8.59C156.33,33.37,159.61,37,164.39,37Z"/><path class="cls-3" d="M181.08,16.68h6.53l6.11,16.69h.1l6-16.69h6.57V40.17h-4.15V21.29h-.07l-7.13,18.88h-2.92l-7-18.88h-.07V40.17h-4Z"/><path class="cls-3" d="M219,16.68h3.62l10.12,23.49h-4.78l-2.19-5.37H215.56l-2.12,5.37h-4.68Zm5.31,14.54-3.61-9.56L217,31.21Z"/><path class="cls-3" d="M235,16.68h8.16c4.41,0,8.66,1.76,8.66,6.74,0,3.38-2.09,5.61-5.38,6.34l6.27,10.42h-5l-5.44-10h-3.05v10H235Zm7.6,10.12c2.36,0,5-.56,5-3.42,0-2.55-2.52-3.19-4.68-3.19h-3.78v6.61Z"/><path class="cls-3" d="M263.27,16.68h3.62L277,40.17h-4.78L270,34.79H259.85l-2.12,5.37h-4.68Zm5.31,14.54L265,21.65l-3.68,9.56Z"/><path class="cls-3" d="M108.34,46.62l-.93,3.3h-.83l-1.89-5.46h1.37l.88,3.15,1-3.15h.93l.92,3.15.88-3.15H112l-1.9,5.46h-.83Z"/><path class="cls-3" d="M116,46.62l-.93,3.3h-.83l-1.89-5.46h1.37l.88,3.15,1-3.15h.93l.92,3.15.88-3.15h1.37l-1.9,5.46h-.83Z"/><path class="cls-3" d="M123.66,46.62l-.93,3.3h-.83L120,44.47h1.37l.88,3.15,1-3.15h.93l.92,3.15.88-3.15h1.37l-1.9,5.46h-.83Z"/><path class="cls-3" d="M129.13,49.93h-1.27V48.57h1.27Z"/><path class="cls-3" d="M135.25,49.93v-.67a1.41,1.41,0,0,1-.64.6,2.54,2.54,0,0,1-1.06.19,2.71,2.71,0,0,1-2-.83,2.8,2.8,0,0,1-.81-2,3,3,0,0,1,.2-1.09,2.72,2.72,0,0,1,.58-.91,2.59,2.59,0,0,1,.9-.64,2.87,2.87,0,0,1,1.12-.21,2.41,2.41,0,0,1,1,.2,1.6,1.6,0,0,1,.69.6v-.66h1.24v5.46ZM132,47.15a1.58,1.58,0,0,0,.46,1.15,1.52,1.52,0,0,0,1.12.46,1.44,1.44,0,0,0,1.06-.46,1.52,1.52,0,0,0,.46-1.09,1.58,1.58,0,0,0-.46-1.14,1.44,1.44,0,0,0-1.07-.48A1.55,1.55,0,0,0,132,47.15Z"/><path class="cls-3" d="M142,46.41a1.5,1.5,0,0,0-1.42-.85,1.41,1.41,0,0,0-1.08.47,1.63,1.63,0,0,0-.43,1.17,1.6,1.6,0,0,0,.44,1.16,1.47,1.47,0,0,0,1.12.46,1.55,1.55,0,0,0,.86-.22,1.31,1.31,0,0,0,.51-.66h1.35a2.79,2.79,0,0,1-1,1.57,2.73,2.73,0,0,1-1.75.57,2.79,2.79,0,0,1-2.05-.85,2.84,2.84,0,0,1-.6-.93,2.8,2.8,0,0,1-.22-1.08,2.91,2.91,0,0,1,.2-1.08,2.69,2.69,0,0,1,.59-.9,2.84,2.84,0,0,1,2.11-.92,2.75,2.75,0,0,1,1.74.57,2.66,2.66,0,0,1,1,1.54Z"/><path class="cls-3" d="M144.43,47.17a2.88,2.88,0,0,1,.21-1.09,2.72,2.72,0,0,1,.61-.92,2.9,2.9,0,0,1,.93-.63,2.71,2.71,0,0,1,1.07-.22,3,3,0,0,1,1.09.2A2.89,2.89,0,0,1,149.92,46a2.73,2.73,0,0,1,.23,1.1,3.06,3.06,0,0,1-.2,1.14,2.89,2.89,0,0,1-1.54,1.57,3,3,0,0,1-1.13.21,2.78,2.78,0,0,1-1.12-.22,2.86,2.86,0,0,1-.92-.65,3.05,3.05,0,0,1-.6-.94A2.92,2.92,0,0,1,144.43,47.17Zm1.31,0a1.68,1.68,0,0,0,.42,1.2,1.64,1.64,0,0,0,2.25,0,1.74,1.74,0,0,0,.42-1.22A1.54,1.54,0,0,0,148.4,46a1.61,1.61,0,0,0-2.22,0A1.61,1.61,0,0,0,145.75,47.16Z"/><path class="cls-3" d="M152.71,44.47v.62a1.72,1.72,0,0,1,.64-.55,1.8,1.8,0,0,1,.82-.18,2.25,2.25,0,0,1,1,.22,1.91,1.91,0,0,1,.73.67,2.09,2.09,0,0,1,.27.68,5.61,5.61,0,0,1,.08,1.11v2.89H155V47.51a3.12,3.12,0,0,0-.25-1.5,1,1,0,0,0-.87-.41,1,1,0,0,0-.91.45,3.08,3.08,0,0,0-.28,1.54v2.34h-1.23V44.47Z"/><path class="cls-3" d="M161.82,46.41a1.5,1.5,0,0,0-1.42-.85,1.41,1.41,0,0,0-1.08.47,1.63,1.63,0,0,0-.44,1.17,1.6,1.6,0,0,0,.44,1.16,1.48,1.48,0,0,0,1.11.46,1.56,1.56,0,0,0,.86-.22,1.29,1.29,0,0,0,.51-.66h1.36a2.81,2.81,0,0,1-1,1.57,2.74,2.74,0,0,1-1.75.57,2.79,2.79,0,0,1-2.05-.85,2.93,2.93,0,0,1-.82-2,2.89,2.89,0,0,1,.2-1.08,2.72,2.72,0,0,1,.58-.9,2.9,2.9,0,0,1,1-.68,2.87,2.87,0,0,1,1.15-.23,2.76,2.76,0,0,1,1.74.57,2.69,2.69,0,0,1,1,1.54Z"/><path class="cls-3" d="M168.76,49.93v-.67a1.39,1.39,0,0,1-.64.6,2.55,2.55,0,0,1-1.06.19,2.72,2.72,0,0,1-2-.83,2.81,2.81,0,0,1-.81-2,3,3,0,0,1,.2-1.09,2.72,2.72,0,0,1,.58-.91,2.61,2.61,0,0,1,.9-.64,2.86,2.86,0,0,1,1.12-.21,2.41,2.41,0,0,1,1,.2,1.63,1.63,0,0,1,.69.6v-.66H170v5.46Zm-3.23-2.77a1.59,1.59,0,0,0,.46,1.15,1.51,1.51,0,0,0,1.12.46,1.44,1.44,0,0,0,1.06-.46,1.51,1.51,0,0,0,.46-1.09,1.59,1.59,0,0,0-.46-1.14,1.44,1.44,0,0,0-1.07-.48,1.56,1.56,0,0,0-1.56,1.56Z"/><path class="cls-3" d="M175.93,44.47h1.14V49a3.13,3.13,0,0,1-.76,2.22,2.71,2.71,0,0,1-2.08.81,2.8,2.8,0,0,1-1.65-.46,2.65,2.65,0,0,1-1-1.38h1.23a1.44,1.44,0,0,0,.56.58,1.65,1.65,0,0,0,.82.21,1.63,1.63,0,0,0,1.23-.49,1.82,1.82,0,0,0,.47-1.3v-.05a2.46,2.46,0,0,1-.84.58,2.68,2.68,0,0,1-1,.2,2.86,2.86,0,0,1-1-.19,2.68,2.68,0,0,1-.87-.54,2.83,2.83,0,0,1-.64-.92,2.76,2.76,0,0,1-.23-1.09,2.81,2.81,0,0,1,.78-2,2.66,2.66,0,0,1,2-.81,2.57,2.57,0,0,1,1,.2,2.62,2.62,0,0,1,.87.59Zm-3.39,2.63a1.63,1.63,0,0,0,.48,1.2,1.6,1.6,0,0,0,1.18.48,1.67,1.67,0,0,0,1.62-1.62,1.64,1.64,0,0,0-.48-1.19,1.54,1.54,0,0,0-1.15-.49,1.61,1.61,0,0,0-1.17.47A1.55,1.55,0,0,0,172.54,47.1Z"/><path class="cls-3" d="M182.21,49.93v-.59a1.73,1.73,0,0,1-1.46.73,2,2,0,0,1-1.58-.63,2.67,2.67,0,0,1-.55-1.81V44.47h1.28v2.45a3.12,3.12,0,0,0,.25,1.51,1,1,0,0,0,.87.41,1,1,0,0,0,.91-.46,3.18,3.18,0,0,0,.27-1.55V44.47h1.25v5.46Z"/><path class="cls-3" d="M189.3,49.93v-.67a1.38,1.38,0,0,1-.64.6,2.52,2.52,0,0,1-1.06.19,2.71,2.71,0,0,1-2-.83,2.8,2.8,0,0,1-.81-2,3,3,0,0,1,.2-1.09,2.68,2.68,0,0,1,.58-.91,2.58,2.58,0,0,1,.9-.64,2.87,2.87,0,0,1,1.12-.21,2.42,2.42,0,0,1,1,.2,1.62,1.62,0,0,1,.69.6v-.66h1.24v5.46Zm-3.24-2.77a1.59,1.59,0,0,0,.46,1.15,1.51,1.51,0,0,0,1.12.46,1.43,1.43,0,0,0,1.05-.46,1.51,1.51,0,0,0,.46-1.09,1.59,1.59,0,0,0-.46-1.14,1.44,1.44,0,0,0-1.07-.48,1.56,1.56,0,0,0-1.56,1.56Z"/><path class="cls-3" d="M193.13,47.6a1.34,1.34,0,0,0,.47.93,1.57,1.57,0,0,0,1,.34,1.62,1.62,0,0,0,.77-.18,1.37,1.37,0,0,0,.54-.5h1.37a3,3,0,0,1-1,1.39,2.68,2.68,0,0,1-1.6.49,2.92,2.92,0,0,1-1.12-.21,2.82,2.82,0,0,1-.92-.64,2.93,2.93,0,0,1-.6-.93,2.86,2.86,0,0,1-.21-1.08,2.91,2.91,0,0,1,.2-1.07,2.74,2.74,0,0,1,.58-.91,3,3,0,0,1,.94-.68,2.62,2.62,0,0,1,1.09-.24,2.81,2.81,0,0,1,1.33.32,3.08,3.08,0,0,1,1,.91,2.42,2.42,0,0,1,.39.79,3.6,3.6,0,0,1,.13,1s0,.07,0,.14,0,.11,0,.13Zm3-1a1.53,1.53,0,0,0-.55-.83,1.57,1.57,0,0,0-1-.29,1.46,1.46,0,0,0-.91.31,1.49,1.49,0,0,0-.54.81Z"/><path class="cls-3" d="M200.34,48.19l-1.13,1.74h-1.39l1.85-2.83L198,44.47h1.42L200.4,46l1-1.56h1.48l-1.74,2.59,1.76,2.87h-1.45Z"/><path class="cls-3" d="M204.93,49.49v2.21h-1.25V44.47h1.25v.45a2.77,2.77,0,0,1,.8-.45,2.7,2.7,0,0,1,.9-.15,2.94,2.94,0,0,1,1,.16,2.49,2.49,0,0,1,.82.48,2.94,2.94,0,0,1,1,2.24,2.85,2.85,0,0,1-.24,1.17,2.77,2.77,0,0,1-.68,1,2.66,2.66,0,0,1-.86.54,2.79,2.79,0,0,1-1,.19,2.87,2.87,0,0,1-.94-.14A2.4,2.4,0,0,1,204.93,49.49Zm0-2.32a1.62,1.62,0,0,0,.45,1.17,1.56,1.56,0,0,0,2.24,0,1.58,1.58,0,0,0,.46-1.14,1.55,1.55,0,0,0-.46-1.15,1.61,1.61,0,0,0-1.18-.46,1.42,1.42,0,0,0-1.07.46A1.54,1.54,0,0,0,205,47.17Z"/><path class="cls-3" d="M211.81,47.6a1.33,1.33,0,0,0,.47.93,1.57,1.57,0,0,0,1,.34,1.63,1.63,0,0,0,.77-.18,1.35,1.35,0,0,0,.54-.5H216a3,3,0,0,1-1,1.39,2.68,2.68,0,0,1-1.6.49,2.93,2.93,0,0,1-1.12-.21,2.85,2.85,0,0,1-.92-.64,2.94,2.94,0,0,1-.62-3.09,2.73,2.73,0,0,1,.58-.91,3,3,0,0,1,.94-.68,2.61,2.61,0,0,1,1.09-.24,2.82,2.82,0,0,1,1.32.32,3.08,3.08,0,0,1,1,.91,2.46,2.46,0,0,1,.39.79,3.6,3.6,0,0,1,.13,1s0,.07,0,.14,0,.11,0,.13Zm3-1a1.54,1.54,0,0,0-.55-.83,1.58,1.58,0,0,0-1-.29,1.46,1.46,0,0,0-.91.31,1.48,1.48,0,0,0-.54.81Z"/><path class="cls-3" d="M221.73,44.9V42.7H223v7.22h-1.25v-.45a2.86,2.86,0,0,1-.79.44,2.77,2.77,0,0,1-.91.15,2.87,2.87,0,0,1-1-.16,2.62,2.62,0,0,1-.82-.48,2.91,2.91,0,0,1-.76-1,3,3,0,0,1-.27-1.24,2.82,2.82,0,0,1,.25-1.16,2.76,2.76,0,0,1,.69-1,2.47,2.47,0,0,1,.85-.54,3.06,3.06,0,0,1,2,0A2.43,2.43,0,0,1,221.73,44.9Zm-.06,2.32a1.64,1.64,0,0,0-.44-1.17,1.48,1.48,0,0,0-1.11-.47,1.51,1.51,0,0,0-1.12.48,1.58,1.58,0,0,0-.46,1.14,1.54,1.54,0,0,0,.47,1.15,1.61,1.61,0,0,0,1.18.46,1.39,1.39,0,0,0,1.06-.46A1.58,1.58,0,0,0,221.68,47.22Z"/><path class="cls-3" d="M225.79,43.91h-1.24V42.7h1.24Zm-1.24,6V44.47h1.24v5.46Z"/><path class="cls-3" d="M227.82,49.93V45.6H227V44.47h.83V42.7h1.27v1.77h.84V45.6h-.84v4.33Z"/><path class="cls-3" d="M232.29,43.91h-1.24V42.7h1.24Zm-1.24,6V44.47h1.24v5.46Z"/><path class="cls-3" d="M233.6,47.17a2.83,2.83,0,0,1,.21-1.09,2.69,2.69,0,0,1,.61-.92,2.93,2.93,0,0,1,.93-.63,2.72,2.72,0,0,1,1.07-.22,2.94,2.94,0,0,1,1.09.2,2.86,2.86,0,0,1,.92.59,2.92,2.92,0,0,1,.66.95,2.78,2.78,0,0,1,.23,1.1,3.08,3.08,0,0,1-.2,1.14,2.85,2.85,0,0,1-.61.93,2.82,2.82,0,0,1-.93.64,3,3,0,0,1-1.13.21,2.76,2.76,0,0,1-1.12-.22,2.81,2.81,0,0,1-.92-.65,3,3,0,0,1-.6-.94A2.92,2.92,0,0,1,233.6,47.17Zm1.31,0a1.67,1.67,0,0,0,.42,1.2,1.64,1.64,0,0,0,2.25,0,1.74,1.74,0,0,0,.42-1.22,1.54,1.54,0,0,0-.44-1.13,1.6,1.6,0,0,0-2.22,0A1.6,1.6,0,0,0,234.91,47.16Z"/><path class="cls-3" d="M241.87,44.47v.62a1.74,1.74,0,0,1,.64-.55,1.79,1.79,0,0,1,.82-.18,2.25,2.25,0,0,1,1,.22,1.92,1.92,0,0,1,.73.67,2.07,2.07,0,0,1,.27.68,5.61,5.61,0,0,1,.08,1.11v2.89h-1.27V47.51a3.11,3.11,0,0,0-.25-1.5,1,1,0,0,0-.87-.41,1,1,0,0,0-.91.45,3.06,3.06,0,0,0-.28,1.54v2.34h-1.22V44.47Z"/><path class="cls-3" d="M247.88,48.12v.07a.91.91,0,0,0,.18.59.59.59,0,0,0,.48.22.64.64,0,0,0,.46-.17.57.57,0,0,0,.17-.43A.6.6,0,0,0,249,48a1.32,1.32,0,0,0-.46-.32l-.55-.23a2.63,2.63,0,0,1-.47-.23,1.7,1.7,0,0,1-.45-.55A1.64,1.64,0,0,1,247,46a1.58,1.58,0,0,1,.48-1.17,1.62,1.62,0,0,1,1.17-.48,1.57,1.57,0,0,1,1.15.42,1.71,1.71,0,0,1,.46,1.18H249.1v0a.58.58,0,0,0-.14-.41.49.49,0,0,0-.38-.15.46.46,0,0,0-.35.15.5.5,0,0,0-.14.36c0,.24.24.46.73.67l.3.12a2.34,2.34,0,0,1,1,.68,1.89,1.89,0,0,1-.26,2.25,1.8,1.8,0,0,1-1.3.5,1.64,1.64,0,0,1-1.27-.53,2.17,2.17,0,0,1-.53-1.42Z"/><path class="cls-3" d="M253.25,49.93H252V48.57h1.27Z"/><path class="cls-3" d="M259.09,46.41a1.5,1.5,0,0,0-1.42-.85,1.4,1.4,0,0,0-1.08.47,1.63,1.63,0,0,0-.44,1.17,1.6,1.6,0,0,0,.44,1.16,1.47,1.47,0,0,0,1.11.46,1.57,1.57,0,0,0,.86-.22,1.32,1.32,0,0,0,.51-.66h1.35a2.78,2.78,0,0,1-1,1.57,2.74,2.74,0,0,1-1.75.57,2.78,2.78,0,0,1-2.05-.85,2.94,2.94,0,0,1-.82-2,2.89,2.89,0,0,1,.2-1.08,2.73,2.73,0,0,1,.59-.9,2.84,2.84,0,0,1,2.11-.92,2.75,2.75,0,0,1,1.74.57,2.67,2.67,0,0,1,1,1.54Z"/><path class="cls-3" d="M261.5,47.17a2.88,2.88,0,0,1,.21-1.09,2.72,2.72,0,0,1,.61-.92,2.9,2.9,0,0,1,.93-.63,2.7,2.7,0,0,1,1.07-.22,3,3,0,0,1,1.09.2,2.87,2.87,0,0,1,.92.59A2.9,2.9,0,0,1,267,46a2.73,2.73,0,0,1,.23,1.1,3.08,3.08,0,0,1-.2,1.14,2.9,2.9,0,0,1-1.54,1.57,3,3,0,0,1-1.13.21,2.78,2.78,0,0,1-1.12-.22,2.83,2.83,0,0,1-.92-.65,3.09,3.09,0,0,1-.6-.94A3,3,0,0,1,261.5,47.17Zm1.31,0a1.67,1.67,0,0,0,.42,1.2,1.47,1.47,0,0,0,1.13.44,1.46,1.46,0,0,0,1.12-.45,1.74,1.74,0,0,0,.42-1.22,1.54,1.54,0,0,0-.44-1.13,1.61,1.61,0,0,0-2.22,0A1.61,1.61,0,0,0,262.81,47.16Z"/><path class="cls-3" d="M269.77,44.47v.62a1.74,1.74,0,0,1,.64-.55,1.8,1.8,0,0,1,.82-.18,2.52,2.52,0,0,1,1.13.23,2.12,2.12,0,0,1,.81.73,2.3,2.3,0,0,1,.72-.72,1.7,1.7,0,0,1,.89-.24,1.91,1.91,0,0,1,1.54.63,2.71,2.71,0,0,1,.53,1.8v3.13H275.6V47.51a3.19,3.19,0,0,0-.24-1.51.91.91,0,0,0-.85-.4,1,1,0,0,0-.9.45,3.16,3.16,0,0,0-.27,1.54v2.34h-1.26V47.51a3.15,3.15,0,0,0-.25-1.51,1,1,0,0,0-.88-.4,1,1,0,0,0-.91.45,3.06,3.06,0,0,0-.28,1.54v2.34h-1.22V44.47Z"/></g></g></g></svg>