<svg xmlns="http://www.w3.org/2000/svg" xmlns:xlink="http://www.w3.org/1999/xlink" viewBox="0 0 205.05 126.62"><defs><style>.cls-1{fill:none;stroke:#dd2526;stroke-miterlimit:10;stroke-width:0.67px;}.cls-2{fill:url(#linear-gradient);}.cls-3{fill:url(#linear-gradient-2);}.cls-4{fill:url(#linear-gradient-3);}.cls-5{fill:url(#linear-gradient-4);}.cls-6{fill:url(#linear-gradient-5);}.cls-7{fill:url(#linear-gradient-6);}.cls-8{fill:url(#linear-gradient-7);}.cls-9{fill:url(#linear-gradient-8);}.cls-10{fill:#c07d2c;}</style><linearGradient id="linear-gradient" x1="14.24" y1="97.12" x2="14.24" y2="130.37" gradientUnits="userSpaceOnUse"><stop offset="0" stop-color="#70180a"/><stop offset="1" stop-color="#561009"/></linearGradient><linearGradient id="linear-gradient-2" x1="42.05" y1="97.12" x2="42.05" y2="130.37" xlink:href="#linear-gradient"/><linearGradient id="linear-gradient-3" x1="71.18" y1="97.12" x2="71.18" y2="130.37" xlink:href="#linear-gradient"/><linearGradient id="linear-gradient-4" x1="106.08" y1="97.12" x2="106.08" y2="130.37" xlink:href="#linear-gradient"/><linearGradient id="linear-gradient-5" x1="138.15" y1="97.12" x2="138.15" y2="130.37" xlink:href="#linear-gradient"/><linearGradient id="linear-gradient-6" x1="165.68" y1="97.12" x2="165.68" y2="130.37" xlink:href="#linear-gradient"/><linearGradient id="linear-gradient-7" x1="190.81" y1="97.12" x2="190.81" y2="130.37" xlink:href="#linear-gradient"/><linearGradient id="linear-gradient-8" x1="153.25" y1="56.43" x2="64.15" y2="105.38" xlink:href="#linear-gradient"/></defs><title>acomara-logo</title><g id="Capa_2" data-name="Capa 2"><g id="Capa_1-2" data-name="Capa 1"><path class="cls-1" d="M52.75,81.43l.06,0-.09,0Z"/><path class="cls-2" d="M12.15,98h4.3l12,27.93H22.8l-2.6-6.39H8.09l-2.53,6.39H0Zm6.31,17.28-4.3-11.36L9.78,115.26Z"/><path class="cls-3" d="M50.69,104.53a7.92,7.92,0,0,0-6.35-2.88c-5.76,0-9.67,4.46-9.67,10.22,0,6.07,3.71,10.3,9.47,10.3a8.2,8.2,0,0,0,6.79-3.24l4,2.8a13.2,13.2,0,0,1-10.81,4.89c-8.72,0-14.91-6-14.91-14.75,0-9,6.55-14.6,15.15-14.6,3.63,0,7.93,1.34,10.14,4.26Z"/><path class="cls-4" d="M71.12,97.27c8.72,0,15.07,5.64,15.07,14.6,0,8.72-6.35,14.75-15.07,14.75s-15-6-15-14.75C56.17,102.92,62.52,97.27,71.12,97.27Zm0,24.89c5.72,0,9.63-4.34,9.63-10.3,0-5.76-3.83-10.22-9.63-10.22s-9.59,4.46-9.59,10.22C61.58,117.83,65.48,122.17,71.17,122.17Z"/><path class="cls-5" d="M91,98h7.77L106,117.83h.12L113.33,98h7.81v27.93h-4.93V103.47h-.08l-8.48,22.45h-3.47l-8.36-22.45h-.08v22.45H91Z"/><path class="cls-6" d="M136.06,98h4.3l12,27.93h-5.68l-2.61-6.39H132l-2.52,6.39h-5.56Zm6.31,17.28-4.3-11.36-4.38,11.36Z"/><path class="cls-7" d="M155.15,98h9.7c5.25,0,10.3,2.09,10.3,8,0,4-2.49,6.67-6.39,7.53l7.45,12.39h-6l-6.47-11.83h-3.63v11.83h-5Zm9,12c2.8,0,6-.67,6-4.06,0-3-3-3.79-5.56-3.79h-4.5V110Z"/><path class="cls-8" d="M188.72,98H193l12,27.93h-5.68l-2.6-6.39H184.66l-2.53,6.39h-5.56ZM195,115.26l-4.3-11.36-4.38,11.36Z"/><path class="cls-9" d="M150.68,69.43a143.17,143.17,0,0,0-22.92-2.17c-28.47-.5-57.67,6.44-77.95,15.7a189,189,0,0,1,78.39-6.56A177.27,177.27,0,0,1,158.55,83h1.53Z"/><path class="cls-10" d="M142.45,57.56h0L133,43.94h0l-2.75-4-7.93-11.43L120,25.19h0l-8-11.47c-2.84,1.73-5.71,3.58-8.48,5.46,2.77-1.88,5.64-3.73,8.48-5.46L102.52,0,91.78,15.48,45,83h.41c18.83-10.61,50.19-19.4,81.68-20.35a174.09,174.09,0,0,1,19.22.44Z"/></g></g></svg>