<svg xmlns="http://www.w3.org/2000/svg" xmlns:xlink="http://www.w3.org/1999/xlink" viewBox="0 0 40.07 24.46"><defs><style>.cls-1{fill:none;}.cls-2{clip-path:url(#clip-path);}.cls-3{fill:#131979;}.cls-4{fill:#fff;}.cls-5{fill:#b40f16;}</style><clipPath id="clip-path"><path class="cls-1" d="M36.36.23H3.71A1.64,1.64,0,0,0,2,1.83V22.63a1.63,1.63,0,0,0,1.67,1.6H36.36A1.64,1.64,0,0,0,38,22.67V1.79A1.64,1.64,0,0,0,36.36.23Z"/></clipPath></defs><title>en</title><g id="Capa_2" data-name="Capa 2"><g id="Capa_1-2" data-name="Capa 1"><g class="cls-2"><rect class="cls-3" width="40.07" height="24.46"/><polygon class="cls-4" points="0 24.46 4.61 24.46 40.07 2.74 40.07 0 35.89 0 0 21.84 0 24.46"/><polygon class="cls-4" points="4.4 0 0 0 0 2.61 35.68 24.46 40.07 24.46 40.07 21.71 4.4 0"/><polygon class="cls-5" points="0 24.36 0 24.46 2.78 24.46 19.3 14.43 17.82 13.52 0 24.36"/><polygon class="cls-5" points="37.02 0 20.71 9.93 22.2 10.83 40.05 0 37.02 0"/><polygon class="cls-5" points="0 1.94 10.48 8.38 13.86 8.38 0.1 0 0 0 0 1.94"/><polygon class="cls-5" points="40.07 22.4 29.69 16.08 26.67 16.08 40.07 24.23 40.07 22.4"/><polygon class="cls-4" points="40.07 8.38 23.41 8.38 23.41 0 16.66 0 16.66 8.38 0 8.38 0 16.08 16.66 16.08 16.66 24.46 23.41 24.46 23.41 16.08 40.07 16.08 40.07 8.38"/><rect class="cls-5" y="9.82" width="40.07" height="4.81"/><rect class="cls-5" x="18.18" width="3.71" height="24.46"/></g></g></g></svg>