<svg xmlns="http://www.w3.org/2000/svg" viewBox="0 0 44.45 44.46"><defs><style>.cls-1{fill:#fff;}.cls-2{fill:#d00053;}</style></defs><title>instragram-icon</title><g id="Capa_2" data-name="Capa 2"><g id="Capa_1-2" data-name="Capa 1"><ellipse class="cls-1" cx="22.23" cy="22.26" rx="17.56" ry="17.06"/><path class="cls-2" d="M22.22,26.68a4.44,4.44,0,1,0-4.45-4.45,4.46,4.46,0,0,0,4.45,4.45Zm0,0"/><path class="cls-2" d="M31.79,16.78V13.17h-.41l-3.72-.32L27.6,17Zm.15,0"/><path class="cls-2" d="M22.22,0A22.23,22.23,0,1,0,44.45,22.23,22.25,22.25,0,0,0,22.22,0ZM34.79,19.63V30A5.08,5.08,0,0,1,30,35.17H14.47c-2.69,0-4.68-2.48-4.68-5.18V14.48c0-2.7,2-4.31,4.68-4.31H30c2.7,0,4.81,1.61,4.81,4.31Zm.08,0"/><path class="cls-2" d="M29.14,22.49a6.81,6.81,0,0,1-6.92,6.78,6.75,6.75,0,0,1-6.91-6.72,6.66,6.66,0,0,1,.51-2.39h-4V30c0,1.34,1.34,3.18,2.68,3.18H30c1.34,0,2.81-1.84,2.81-3.18V20.17H28.63a6.36,6.36,0,0,1,.51,2.33Zm0-.27"/></g></g></svg>