<svg xmlns="http://www.w3.org/2000/svg" viewBox="0 0 44.45 44.46"><defs><style>.cls-1{fill:#ce4d40;}.cls-2{fill:#fff;}</style></defs><title>plus-icon</title><g id="Capa_2" data-name="Capa 2"><g id="Capa_1-2" data-name="Capa 1"><path class="cls-1" d="M44.45,22.23A22.23,22.23,0,1,1,22.22,0,22.23,22.23,0,0,1,44.45,22.23Zm0,0"/><path class="cls-1" d="M7.74,23.23a9.16,9.16,0,0,0,6.18,8.66,9,9,0,0,0,9.88-2.63,10.37,10.37,0,0,0,1.86-7.33c-2.92,0-5.85,0-8.77,0,0,1,0,2.08,0,3.12,1.75,0,3.5,0,5.25.06a5.08,5.08,0,0,1-3,3.47,5.79,5.79,0,1,1-3.9-10.89c1.88-.66,3.81.08,5.42,1.05.81-.76,1.58-1.57,2.32-2.39A9.21,9.21,0,0,0,7.74,23.23Zm0,0"/><path class="cls-1" d="M31.34,18.89s-.17,1.95-.18,2.81c-.88,0-1.77.21-2.77.21v2.61l2.77,0c0,.87.08,1.74.09,2.61H33.9c0-.87-.07-1.75-.06-2.62h2.54V21.92c-1,0-1.65-.2-2.52-.21,0-.87.08-1.81.08-2.81Zm0,.4"/><path class="cls-2" d="M7.74,23.23A9.21,9.21,0,0,1,23,16.33c-.75.82-1.51,1.64-2.32,2.39-1.6-1-3.54-1.72-5.42-1.05a5.79,5.79,0,1,0,3.9,10.89,5.07,5.07,0,0,0,3-3.46c-1.75,0-3.5,0-5.25-.06,0-1,0-2.08,0-3.12,2.92,0,5.85,0,8.77,0a10.35,10.35,0,0,1-1.86,7.33c-2.27,2.92-6.47,3.78-9.88,2.63a9.16,9.16,0,0,1-6.18-8.66Zm0,0"/><path class="cls-2" d="M31.34,18.89h2.6c0,1-.08,1.95-.08,2.81.87,0,1.52.21,2.52.21v2.61H33.87c0,.87,0,1.75,0,2.62H31.31c0-.87-.16-1.75-.16-2.61l-2.76,0V21.92c1,0,1.9-.2,2.77-.21,0-.87.17-1.81.18-2.81Zm0,.4"/></g></g></svg>