<svg xmlns="http://www.w3.org/2000/svg" viewBox="0 0 36 24"><defs><style>.cls-1{fill:#1ea158;}.cls-2{fill:#edc823;}.cls-3{fill:#035994;}.cls-4{fill:#fff;}.cls-5{fill:#179a5d;}</style></defs><title>pt</title><g id="Capa_2" data-name="Capa 2"><g id="Capa_1-2" data-name="Capa 1"><rect class="cls-1" width="36" height="24" rx="1.65" ry="1.65"/><polygon class="cls-2" points="17.67 21.41 3.11 12.34 17.67 3.27 32.23 12.34 17.67 21.41"/><path class="cls-3" d="M23.74,12.34a6.07,6.07,0,1,1-6.06-6.08A6.07,6.07,0,0,1,23.74,12.34Z"/><path class="cls-4" d="M15.65,10.15a15.08,15.08,0,0,0-3.44-.08,5.7,5.7,0,0,0-.48,1.19,13.59,13.59,0,0,1,3.82,0,16,16,0,0,1,7.82,3.43,6.5,6.5,0,0,0,.24-1.22A16.83,16.83,0,0,0,15.65,10.15Z"/><path class="cls-5" d="M13.21,10.56a.18.18,0,0,1-.17.21c-.11,0-.18-.08-.18-.2a.18.18,0,0,1,.17-.21C13.13,10.36,13.2,10.45,13.21,10.56Zm.08,0a.25.25,0,1,0-.5,0,.24.24,0,0,0,.25.25A.25.25,0,0,0,13.28,10.56Z"/><path class="cls-5" d="M13.45,10.36h.17s.09,0,.09.09-.05.09-.1.09h-.16Zm0,.23h.16c.08,0,.09,0,.1.09a.31.31,0,0,0,0,.13h.08s0,0,0-.05v-.09c0-.07,0-.09-.06-.1a.12.12,0,0,0,.08-.12c0-.11-.08-.13-.17-.14h-.23v.51h.07Z"/><path class="cls-5" d="M14,10.37h.13c.1,0,.15.07.15.2s-.07.19-.15.19h-.14Zm-.08.45h.2c.17,0,.22-.14.23-.25a.24.24,0,0,0-.21-.26h-.2Z"/><path class="cls-5" d="M14.76,10.86l-.38,0,0-.51.37,0v.06l-.31,0v.16h.27v.07l-.27,0v.17l.3,0Z"/><path class="cls-5" d="M15.26,10.92l0-.3s0-.08,0-.13h0l-.19.41H15L15,10.46h0a.46.46,0,0,1,0,.13l0,.3h-.06l0-.5H15l.1.44h0l.19-.41h.09l-.05.51Z"/><path class="cls-5" d="M17.17,11.27l-.37-.08.12-.5.35.08v.06L17,10.76l0,.15.27.07,0,.06L16.92,11l0,.17.3.07Z"/><path class="cls-5" d="M18.63,11.22l.12.05c.05,0,.09.05.07.11s-.07.07-.12.05l-.13,0Zm-.08.22.15.06a.15.15,0,0,0,.19-.09.14.14,0,0,0-.1-.19l-.21-.07-.17.48.06,0Z"/><path class="cls-5" d="M19.08,11.39l.15.06a.09.09,0,0,1,.06.11c0,.07-.08.06-.13,0L19,11.54ZM19,11.6l.15.07c.08,0,.07.07.05.11a.6.6,0,0,0,0,.12l.08,0h0s0,0,0-.06l0-.09c0-.07,0-.09,0-.11a.13.13,0,0,0,.1-.09c0-.1,0-.16-.1-.19L19,11.31l-.18.47.06,0Z"/><path class="cls-5" d="M19.77,11.87a.18.18,0,0,1-.24.12.18.18,0,0,1-.08-.26c0-.11.13-.17.23-.12A.18.18,0,0,1,19.77,11.87Zm.07,0a.26.26,0,0,0-.13-.35.24.24,0,0,0-.32.16.23.23,0,0,0,.12.34A.24.24,0,0,0,19.84,11.9Z"/><path class="cls-5" d="M20.12,12l.21.09-.12.25,0,0v-.07a.22.22,0,0,1-.19,0,.21.21,0,0,1-.11-.11.27.27,0,0,1,0-.23.24.24,0,0,1,.33-.14.2.2,0,0,1,.13.24l-.06,0a.16.16,0,0,0-.1-.17A.18.18,0,0,0,20,12c0,.09-.07.21.06.26a.19.19,0,0,0,.11,0c.06,0,.08-.05.11-.1l-.15-.07Z"/><path class="cls-5" d="M20.57,12l.16.08a.08.08,0,0,1,0,.12c0,.07-.09.06-.13,0l-.14-.07Zm-.1.21.14.07c.08,0,.06.09,0,.12a.47.47,0,0,0,0,.12l.07,0h0s0,0,0-.06l0-.09a.09.09,0,0,0,0-.11s.08,0,.12-.08,0-.16-.09-.2l-.21-.1-.22.46.06,0Z"/><path class="cls-5" d="M21.09,12.8l-.33-.18.24-.45.33.18,0,.06L21,12.27,21,12.4l.24.14,0,.05-.25-.13-.08.15.26.15Z"/><path class="cls-5" d="M21.62,12.69a.11.11,0,0,0-.06-.15.1.1,0,0,0-.15,0s0,.06,0,.09l.1.1a.13.13,0,0,1,0,.17.17.17,0,0,1-.25,0,.22.22,0,0,1-.12-.12.18.18,0,0,1,0-.13l.06,0a.13.13,0,0,0,.07.18s.11.06.16,0,0-.08-.05-.13l-.08-.07a.13.13,0,0,1,0-.16.16.16,0,0,1,.24,0c.15.09.11.19.08.24Z"/><path class="cls-5" d="M22,12.94a.12.12,0,0,0-.05-.16.09.09,0,0,0-.15,0s0,.06,0,.09L22,13a.12.12,0,0,1,0,.17c-.06.1-.17.07-.25,0a.25.25,0,0,1-.11-.13.15.15,0,0,1,0-.13l.05,0a.12.12,0,0,0,.06.17s.12.06.16,0,0-.07,0-.13l-.08-.08a.13.13,0,0,1,0-.15.16.16,0,0,1,.23,0c.15.09.11.19.08.24Z"/><path class="cls-5" d="M22.45,13.33a.18.18,0,1,1-.3-.19.18.18,0,0,1,.26-.08A.19.19,0,0,1,22.45,13.33Zm.06,0a.25.25,0,1,0-.41-.27.25.25,0,1,0,.41.27Z"/><polygon class="cls-4" points="19.31 8.4 19.39 8.66 19.66 8.66 19.44 8.81 19.52 9.07 19.3 8.91 19.09 9.07 19.17 8.81 18.95 8.66 19.23 8.66 19.31 8.4"/><polygon class="cls-4" points="15.13 11.27 15.18 11.43 15.36 11.44 15.21 11.53 15.28 11.7 15.13 11.6 14.99 11.7 15.04 11.54 14.91 11.44 15.08 11.44 15.13 11.27"/><polygon class="cls-4" points="12.53 9.84 12.61 10.08 12.85 10.07 12.65 10.22 12.73 10.45 12.53 10.3 12.34 10.45 12.42 10.21 12.22 10.07 12.46 10.08 12.53 9.84"/><polygon class="cls-4" points="13.62 12.05 13.68 12.25 13.9 12.25 13.72 12.38 13.79 12.59 13.61 12.46 13.44 12.59 13.5 12.38 13.34 12.25 13.55 12.25 13.62 12.05"/><polygon class="cls-4" points="13.11 12.35 13.19 12.62 13.48 12.62 13.25 12.79 13.34 13.06 13.1 12.9 12.87 13.07 12.96 12.79 12.72 12.62 13.01 12.62 13.11 12.35"/><polygon class="cls-4" points="12.46 13.07 12.5 13.21 12.65 13.21 12.53 13.3 12.58 13.44 12.46 13.35 12.34 13.44 12.39 13.3 12.26 13.21 12.41 13.21 12.46 13.07"/><polygon class="cls-4" points="14.29 13.02 14.36 13.21 14.55 13.21 14.39 13.32 14.46 13.52 14.3 13.39 14.13 13.51 14.2 13.32 14.04 13.21 14.24 13.21 14.29 13.02"/><polygon class="cls-4" points="14.18 13.74 14.24 13.92 14.42 13.92 14.27 14.03 14.33 14.21 14.18 14.1 14.03 14.2 14.09 14.03 13.95 13.92 14.12 13.92 14.18 13.74"/><polygon class="cls-4" points="15 14.27 15.07 14.52 15.33 14.52 15.13 14.67 15.21 14.91 15 14.76 14.79 14.91 14.87 14.66 14.67 14.52 14.92 14.52 15 14.27"/><polygon class="cls-4" points="17.56 13.68 17.65 13.95 17.93 13.95 17.7 14.12 17.8 14.39 17.56 14.22 17.34 14.39 17.41 14.12 17.19 13.95 17.47 13.95 17.56 13.68"/><polygon class="cls-4" points="17.25 13.04 17.28 13.13 17.39 13.13 17.31 13.2 17.34 13.29 17.25 13.24 17.17 13.29 17.21 13.19 17.13 13.13 17.22 13.13 17.25 13.04"/><polygon class="cls-4" points="16.76 12.63 16.82 12.79 16.98 12.79 16.85 12.89 16.9 13.04 16.76 12.94 16.64 13.04 16.68 12.88 16.55 12.79 16.71 12.79 16.76 12.63"/><polygon class="cls-4" points="17.64 11.96 17.7 12.16 17.91 12.16 17.74 12.28 17.8 12.48 17.64 12.36 17.46 12.48 17.53 12.28 17.36 12.16 17.57 12.16 17.64 11.96"/><polygon class="cls-4" points="19 10.58 19.05 10.75 19.24 10.74 19.09 10.86 19.14 11.02 19 10.92 18.86 11.02 18.91 10.85 18.77 10.74 18.95 10.75 19 10.58"/><polygon class="cls-4" points="18.22 12.58 18.29 12.78 18.51 12.78 18.33 12.91 18.4 13.12 18.22 12.99 18.05 13.12 18.13 12.91 17.94 12.78 18.16 12.79 18.22 12.58"/><polygon class="cls-4" points="18.9 14.27 19 14.55 19.3 14.55 19.05 14.73 19.16 15.02 18.91 14.84 18.66 15.02 18.75 14.73 18.51 14.55 18.81 14.55 18.9 14.27"/><polygon class="cls-4" points="19.38 15.25 19.46 15.47 19.69 15.48 19.49 15.61 19.57 15.84 19.38 15.7 19.2 15.83 19.27 15.61 19.08 15.48 19.31 15.47 19.38 15.25"/><polygon class="cls-4" points="19.9 14.56 19.95 14.75 20.15 14.75 19.99 14.87 20.06 15.06 19.9 14.94 19.73 15.05 19.8 14.87 19.64 14.75 19.84 14.75 19.9 14.56"/><polygon class="cls-4" points="20.63 14.13 20.71 14.34 20.92 14.34 20.75 14.47 20.81 14.68 20.64 14.55 20.45 14.68 20.52 14.47 20.34 14.34 20.57 14.34 20.63 14.13"/><polygon class="cls-4" points="20.65 15.1 20.71 15.27 20.88 15.27 20.75 15.37 20.8 15.54 20.65 15.44 20.5 15.54 20.57 15.38 20.41 15.27 20.6 15.27 20.65 15.1"/><polygon class="cls-4" points="20.63 15.71 20.68 15.85 20.84 15.86 20.71 15.94 20.76 16.09 20.63 15.99 20.52 16.09 20.55 15.94 20.43 15.86 20.58 15.85 20.63 15.71"/><polygon class="cls-4" points="21.25 14.36 21.32 14.59 21.56 14.59 21.37 14.74 21.45 14.98 21.24 14.84 21.04 14.97 21.12 14.74 20.91 14.6 21.17 14.6 21.25 14.36"/><polygon class="cls-4" points="21.94 14.3 22 14.46 22.16 14.46 22.03 14.55 22.08 14.72 21.95 14.62 21.81 14.72 21.86 14.55 21.72 14.46 21.89 14.46 21.94 14.3"/><polygon class="cls-4" points="22.21 13.84 22.25 13.96 22.37 13.96 22.27 14.04 22.31 14.16 22.21 14.08 22.11 14.16 22.14 14.04 22.04 13.96 22.17 13.96 22.21 13.84"/><polygon class="cls-4" points="21.87 13.01 21.92 13.15 22.06 13.15 21.94 13.24 21.99 13.39 21.86 13.3 21.74 13.39 21.79 13.24 21.66 13.15 21.82 13.15 21.87 13.01"/><polygon class="cls-4" points="22.78 12.89 22.86 13.14 23.12 13.14 22.91 13.3 22.99 13.55 22.78 13.39 22.56 13.55 22.65 13.3 22.43 13.14 22.69 13.14 22.78 12.89"/><polygon class="cls-4" points="17.64 15.88 17.68 16.04 17.85 16.04 17.72 16.13 17.77 16.29 17.63 16.19 17.5 16.29 17.55 16.13 17.42 16.04 17.59 16.03 17.64 15.88"/></g></g></svg>