<svg xmlns="http://www.w3.org/2000/svg" viewBox="0 0 44.46 44.46"><defs><style>.cls-1{fill:#42aa6b;}.cls-2{fill:#fff;}</style></defs><title>tripadvisor-icon</title><g id="Capa_2" data-name="Capa 2"><g id="Capa_1-2" data-name="Capa 1"><path class="cls-1" d="M44.46,22.23A22.23,22.23,0,1,1,22.23,0,22.23,22.23,0,0,1,44.46,22.23Zm0,0"/><circle class="cls-2" cx="13.93" cy="23.64" r="1.31"/><circle class="cls-2" cx="30.03" cy="23.63" r="1.31"/><path class="cls-2" d="M14.13,19.76A3.89,3.89,0,1,0,18,23.65,3.88,3.88,0,0,0,14.13,19.76Zm0,6.57a2.69,2.69,0,1,1,2.69-2.69A2.69,2.69,0,0,1,14.13,26.33ZM38.3,15.89H33c-2.73-2-6.46-3-10.73-3s-8.26,1-11,3H6.14A7.37,7.37,0,0,1,7.74,19a7.87,7.87,0,0,0-1.53,4.67,8,8,0,0,0,14.22,5,19.52,19.52,0,0,1,1.79,2.51s1.15-1.72,1.79-2.51a8,8,0,0,0,14.21-5.05A7.79,7.79,0,0,0,36.71,19,7.39,7.39,0,0,1,38.3,15.89ZM14.22,30.11a6.44,6.44,0,1,1,6.44-6.44A6.44,6.44,0,0,1,14.22,30.11Zm0-14.44a20.48,20.48,0,0,1,8-1.54A19.22,19.22,0,0,1,30,15.67a8,8,0,0,0-7.75,8A8,8,0,0,0,14.23,15.66Zm16,14.44a6.44,6.44,0,1,1,6.44-6.44A6.44,6.44,0,0,1,30.23,30.11Zm0-10.37a3.89,3.89,0,1,0,3.88,3.89A3.88,3.88,0,0,0,30.23,19.74Zm0,6.58a2.69,2.69,0,1,1,2.69-2.69A2.69,2.69,0,0,1,30.23,26.32Z"/></g></g></svg>