<svg xmlns="http://www.w3.org/2000/svg" viewBox="0 0 44.46 44.46"><defs><style>.cls-1{fill:#589fd4;}.cls-2{fill:#f0f1f1;}</style></defs><title>twitter-icon</title><g id="Capa_2" data-name="Capa 2"><g id="Capa_1-2" data-name="Capa 1"><path class="cls-1" d="M44.46,22.23A22.23,22.23,0,1,1,22.23,0,22.23,22.23,0,0,1,44.46,22.23Zm0,0"/><path class="cls-2" d="M35.84,16a10.48,10.48,0,0,1-3,.84,5.3,5.3,0,0,0,2.33-2.94,10.63,10.63,0,0,1-3.37,1.29,5.32,5.32,0,0,0-9.2,3.63A5.52,5.52,0,0,0,22.7,20a15.09,15.09,0,0,1-11-5.56A5.31,5.31,0,0,0,11,17.13a5.14,5.14,0,0,0,2.17,4.42,7.27,7.27,0,0,1-2.6-.66V21a5.49,5.49,0,0,0,4.46,5.21,4.66,4.66,0,0,1-1.3.19,4.85,4.85,0,0,1-1-.09,5.35,5.35,0,0,0,5,3.69,10.61,10.61,0,0,1-6.59,2.27,9.81,9.81,0,0,1-1.26-.07A15.11,15.11,0,0,0,33.2,19.41c0-.23,0-.46,0-.69A10.91,10.91,0,0,0,35.84,16Zm0,0"/></g></g></svg>