<svg xmlns="http://www.w3.org/2000/svg" viewBox="0 0 102 42.43"><defs><style>.cls-1{fill:#fff;}</style></defs><title>youtube-logo</title><g id="Capa_2" data-name="Capa 2"><g id="Capa_1-2" data-name="Capa 1"><path class="cls-1" d="M78.61,16.87c-.6,0-1.62.29-1.62.9V30.25c0,.61,1,.91,1.62.91,1,0,1.38-.91,1.38-2.76V19.67c0-1.85-.35-2.8-1.38-2.8Zm.06,0"/><path class="cls-1" d="M92,16.87c-1.2,0-2,.94-2,2.84V22h4V19.71c0-1.9-.8-2.84-2-2.84Zm-.18,0"/><path class="cls-1" d="M99.3,2.82C97,.39,94.51.59,93.35.44,85-.17,72.58,0,72.58,0h0S60.1-.17,51.78.44a8.21,8.21,0,0,0-5.95,2.48c-1.78,1.85-2.3,6-2.3,6S43,13.79,43,18.71v4.62c0,4.93.54,9.85.54,9.85s.55,4.19,2.33,6c2.27,2.42,5.22,2.34,6.53,2.6,4.75.47,20.18.61,20.18.61s12.46,0,20.78-.64a8.35,8.35,0,0,0,5.95-2.57c1.78-1.84,2.23-6,2.23-6s.46-4.93.46-9.85V18.71c0-4.92-.47-9.84-.47-9.84s-.46-4.2-2.23-6ZM56,34H52V11H48V7H60v4H56Zm14,0H67V32c-2,1.69-3,2.52-4.33,2.52A2.24,2.24,0,0,1,60.33,33,10.6,10.6,0,0,1,60,30V14h3V28.85a4.14,4.14,0,0,0,.23,1.44,1.15,1.15,0,0,0,1.17.87c.72,0,1.6-.57,2.6-1.74V14h3Zm14-5.92a15.69,15.69,0,0,1-.45,4.12,2.83,2.83,0,0,1-2.85,2.3A4.55,4.55,0,0,1,77,32.27V34H73V7h4v8.72a4.52,4.52,0,0,1,3.66-2.22,2.91,2.91,0,0,1,2.91,2.31A15.44,15.44,0,0,1,84,20ZM97,25H90v3.28c0,1.9.62,2.85,1.85,2.85.89,0,1.41-.56,1.62-1.55A18,18,0,0,0,93.55,27H97v.67c0,1.19.06,2,0,2.39a5.35,5.35,0,0,1-.79,2.22,4.9,4.9,0,0,1-4.33,2.22,5.49,5.49,0,0,1-4.56-2.11A8,8,0,0,1,86,27.62V20.45a8.07,8.07,0,0,1,1.33-4.82,5.27,5.27,0,0,1,4.42-2.1,4.86,4.86,0,0,1,4.2,2.1c.75,1,1.05,2.63,1.05,4.82Zm.23-.34"/><path class="cls-1" d="M9,33V21.62L13.94,5H9.86L7.11,15.93,4.25,5H0c.86,3,1.71,5.2,2.55,7.77C3.85,16.67,5,19.63,5,21.62V33Zm.09-.18"/><path class="cls-1" d="M18.56,33.14A5,5,0,0,0,22.83,31,8.26,8.26,0,0,0,24,26.16V18.92a8.28,8.28,0,0,0-1.16-4.86,4.92,4.92,0,0,0-4.26-2.12,5,5,0,0,0-4.34,2.12A8.08,8.08,0,0,0,13,18.92v7.25A8.07,8.07,0,0,0,14.23,31a5.06,5.06,0,0,0,4.33,2.12ZM17,18.17c0-1.92.32-2.87,1.5-2.87s1.5,1,1.5,2.87v8.7c0,1.91-.34,2.87-1.5,2.87s-1.5-1-1.5-2.87Zm-.17,0"/><path class="cls-1" d="M37,33V12H34V28c-1,1.17-1.8,1.76-2.53,1.76a1.12,1.12,0,0,1-1.14-.88A3.15,3.15,0,0,1,30,27.4V12H27v16.5a12.07,12.07,0,0,0,.18,3.07,2.44,2.44,0,0,0,2.51,1.54C31,33.14,32,32.31,34,30.6V33Zm.18-.18"/></g></g></svg>